# xmcd
#
# Track frame offsets:
#	150
#	12852
#	24310
#	33025
#	43047
#	57031
#	68252
#	79475
#	99376
#	117550
#	128917
#	138696
#	151768
#	162130
#	173408
#	182463
#	194186
#	212249
#	225825
#	232557
#	246278
#	259721
#	268789
#	277896
#	290335
#
# Disc length: 4284 seconds
#
# Revision: 0
# Processed by: cddbd v1.5.1PL0 Copyright (c) Steve Scherf et al.
# Submitted via: dBpowerAMP V4.0
#
DISCID=4510ba19
DTITLE=Ptaki - Wiosenny ptakow spiew
DYEAR=1900
DGENRE=Undefined
TTITLE0=Cierniowka
TTITLE1=Lozowka
TTITLE2=Trzcinniczek
TTITLE3=Piezga
TTITLE4=Trzciniak i kumaki
TTITLE5=Zaganiacz
TTITLE6=Swistunka lesna
TTITLE7=Cierniowka
TTITLE8=Slowik szary
TTITLE9=Skowronek
TTITLE10=Gajowka
TTITLE11=Kapturka
TTITLE12=Swiergotek lakowy
TTITLE13=Piecuszek
TTITLE14=Pierwiosnek
TTITLE15=Swierszczak
TTITLE16=Kukulka
TTITLE17=Zieba
TTITLE18=Grzywacz
TTITLE19=Szczygiel
TTITLE20=Bogatka I
TTITLE21=Bogatka II
TTITLE22=Trznadel
TTITLE23=Kowalik
TTITLE24=Swierszcze
EXTD=
EXTT0=
EXTT1=
EXTT2=
EXTT3=
EXTT4=
EXTT5=
EXTT6=
EXTT7=
EXTT8=
EXTT9=
EXTT10=
EXTT11=
EXTT12=
EXTT13=
EXTT14=
EXTT15=
EXTT16=
EXTT17=
EXTT18=
EXTT19=
EXTT20=
EXTT21=
EXTT22=
EXTT23=
EXTT24=
PLAYORDER=
